<svg width="50" height="46" viewBox="0 0 50 46" fill="none" xmlns="http://www.w3.org/2000/svg">
<rect x="11.3604" y="1.29077" width="11.164" height="11.164" stroke="white"/>
<rect x="29.9415" y="1.27132" width="7.92155" height="7.92155" transform="rotate(45 29.9415 1.27132)" stroke="white"/>
<rect x="11.3604" y="14.4409" width="11.164" height="11.164" rx="5.58199" stroke="white"/>
<rect x="24.5106" y="14.4409" width="11.164" height="11.164" rx="3.5" stroke="white"/>
<path d="M2.44922 39.3262V43H1.08398V33.9531H2.63086C3.38867 33.9531 3.96094 34.0059 4.34766 34.1113C4.73828 34.2168 5.08203 34.416 5.37891 34.709C5.89844 35.2168 6.1582 35.8574 6.1582 36.6309C6.1582 37.459 5.88086 38.1152 5.32617 38.5996C4.77148 39.084 4.02344 39.3262 3.08203 39.3262H2.44922ZM2.44922 38.0605H2.95898C4.21289 38.0605 4.83984 37.5781 4.83984 36.6133C4.83984 35.6797 4.19336 35.2129 2.90039 35.2129H2.44922V38.0605ZM8.63086 33.1035V43H7.3125V33.1035H8.63086ZM14.5078 37.293H15.832V43H14.5078V42.4023C13.9648 42.9102 13.3809 43.1641 12.7559 43.1641C11.9668 43.1641 11.3145 42.8789 10.7988 42.3086C10.2871 41.7266 10.0312 41 10.0312 40.1289C10.0312 39.2734 10.2871 38.5605 10.7988 37.9902C11.3105 37.4199 11.9512 37.1348 12.7207 37.1348C13.3848 37.1348 13.9805 37.4082 14.5078 37.9551V37.293ZM11.3789 40.1289C11.3789 40.6758 11.5254 41.1211 11.8184 41.4648C12.1191 41.8125 12.498 41.9863 12.9551 41.9863C13.4434 41.9863 13.8379 41.8184 14.1387 41.4824C14.4395 41.1348 14.5898 40.6934 14.5898 40.1582C14.5898 39.623 14.4395 39.1816 14.1387 38.834C13.8379 38.4941 13.4473 38.3242 12.9668 38.3242C12.5137 38.3242 12.1348 38.4961 11.8301 38.8398C11.5293 39.1875 11.3789 39.6172 11.3789 40.1289ZM18.8555 38.5234V43H17.5371V38.5234H16.9746V37.293H17.5371V35.2012H18.8555V37.293H19.8809V38.5234H18.8555ZM22.1426 38.5234V43H20.8184V38.5234H20.3496V37.293H20.8184V35.0898C20.8184 34.3711 20.9434 33.8633 21.1934 33.5664C21.5371 33.1523 22.0371 32.9453 22.6934 32.9453C22.9277 32.9453 23.2227 33.0137 23.5781 33.1504V34.498L23.4434 34.4277C23.1582 34.2832 22.9238 34.2109 22.7402 34.2109C22.5059 34.2109 22.3477 34.2949 22.2656 34.4629C22.1836 34.627 22.1426 34.9434 22.1426 35.4121V37.293H23.5781V38.5234H22.1426ZM24.2227 40.1055C24.2227 39.2812 24.5176 38.5801 25.1074 38.002C25.6973 37.4238 26.416 37.1348 27.2637 37.1348C28.1152 37.1348 28.8379 37.4258 29.4316 38.0078C30.0176 38.5898 30.3105 39.3047 30.3105 40.1523C30.3105 41.0078 30.0156 41.7246 29.4258 42.3027C28.832 42.877 28.1035 43.1641 27.2402 43.1641C26.3848 43.1641 25.668 42.8711 25.0898 42.2852C24.5117 41.707 24.2227 40.9805 24.2227 40.1055ZM25.5703 40.1289C25.5703 40.6992 25.7227 41.1504 26.0273 41.4824C26.3398 41.8184 26.752 41.9863 27.2637 41.9863C27.7793 41.9863 28.1914 41.8203 28.5 41.4883C28.8086 41.1562 28.9629 40.7129 28.9629 40.1582C28.9629 39.6035 28.8086 39.1602 28.5 38.8281C28.1875 38.4922 27.7754 38.3242 27.2637 38.3242C26.7598 38.3242 26.3516 38.4922 26.0391 38.8281C25.7266 39.1641 25.5703 39.5977 25.5703 40.1289ZM31.7109 37.293H33.0293V37.8027C33.2715 37.5488 33.4863 37.375 33.6738 37.2812C33.8652 37.1836 34.0918 37.1348 34.3535 37.1348C34.7012 37.1348 35.0645 37.248 35.4434 37.4746L34.8398 38.6816C34.5898 38.502 34.3457 38.4121 34.1074 38.4121C33.3887 38.4121 33.0293 38.9551 33.0293 40.041V43H31.7109V37.293ZM36.3867 37.293H37.7051V37.8203C37.959 37.5547 38.1758 37.375 38.3555 37.2812C38.5469 37.1836 38.7871 37.1348 39.0762 37.1348C39.7207 37.1348 40.2305 37.416 40.6055 37.9785C41.0195 37.416 41.5801 37.1348 42.2871 37.1348C43.5723 37.1348 44.2148 37.9141 44.2148 39.4727V43H42.8906V39.8301C42.8906 39.2832 42.8242 38.8965 42.6914 38.6699C42.5547 38.4395 42.3301 38.3242 42.0176 38.3242C41.6543 38.3242 41.3887 38.4609 41.2207 38.7344C41.0566 39.0078 40.9746 39.4473 40.9746 40.0527V43H39.6504V39.8477C39.6504 38.832 39.3574 38.3242 38.7715 38.3242C38.4004 38.3242 38.1289 38.4629 37.957 38.7402C37.7891 39.0176 37.7051 39.4551 37.7051 40.0527V43H36.3867V37.293ZM49.1953 38.2656L48.1055 38.8457C47.9336 38.4941 47.7207 38.3184 47.4668 38.3184C47.3457 38.3184 47.2422 38.3594 47.1562 38.4414C47.0703 38.5195 47.0273 38.6211 47.0273 38.7461C47.0273 38.9648 47.2812 39.1816 47.7891 39.3965C48.4883 39.6973 48.959 39.9746 49.2012 40.2285C49.4434 40.4824 49.5645 40.8242 49.5645 41.2539C49.5645 41.8047 49.3613 42.2656 48.9551 42.6367C48.5605 42.9883 48.084 43.1641 47.5254 43.1641C46.5684 43.1641 45.8906 42.6973 45.4922 41.7637L46.6172 41.2422C46.7734 41.5156 46.8926 41.6895 46.9746 41.7637C47.1348 41.9121 47.3262 41.9863 47.5488 41.9863C47.9941 41.9863 48.2168 41.7832 48.2168 41.377C48.2168 41.1426 48.0449 40.9238 47.7012 40.7207C47.5684 40.6543 47.4355 40.5898 47.3027 40.5273C47.1699 40.4648 47.0352 40.4004 46.8984 40.334C46.5156 40.1465 46.2461 39.959 46.0898 39.7715C45.8906 39.5332 45.791 39.2266 45.791 38.8516C45.791 38.3555 45.9609 37.9453 46.3008 37.6211C46.6484 37.2969 47.0703 37.1348 47.5664 37.1348C48.2969 37.1348 48.8398 37.5117 49.1953 38.2656Z" fill="white"/>
</svg>
