<svg width="55" height="44" viewBox="0 0 55 44" fill="none" xmlns="http://www.w3.org/2000/svg">
<path d="M3.3 39.008H3.84C4.248 39.008 4.612 38.944 4.932 38.816C5.252 38.688 5.52 38.512 5.736 38.288C5.96 38.064 6.128 37.8 6.24 37.496C6.36 37.184 6.42 36.844 6.42 36.476C6.42 36.116 6.36 35.78 6.24 35.468C6.12 35.156 5.948 34.888 5.724 34.664C5.508 34.44 5.24 34.264 4.92 34.136C4.6 34.008 4.24 33.944 3.84 33.944H3.3V39.008ZM0.948 31.952H4.428C5.044 31.952 5.62 32.076 6.156 32.324C6.7 32.572 7.172 32.904 7.572 33.32C7.98 33.728 8.3 34.208 8.532 34.76C8.764 35.304 8.88 35.876 8.88 36.476C8.88 37.068 8.764 37.64 8.532 38.192C8.308 38.736 7.992 39.216 7.584 39.632C7.184 40.048 6.712 40.38 6.168 40.628C5.632 40.876 5.052 41 4.428 41H0.948V31.952ZM12.3496 34.844V41H10.1776V34.844H12.3496ZM10.0336 32.48C10.0336 32.312 10.0656 32.156 10.1296 32.012C10.1936 31.86 10.2816 31.728 10.3936 31.616C10.5056 31.504 10.6336 31.416 10.7776 31.352C10.9296 31.288 11.0896 31.256 11.2576 31.256C11.4256 31.256 11.5816 31.288 11.7256 31.352C11.8776 31.416 12.0096 31.504 12.1216 31.616C12.2336 31.728 12.3216 31.86 12.3856 32.012C12.4496 32.156 12.4816 32.312 12.4816 32.48C12.4816 32.648 12.4496 32.808 12.3856 32.96C12.3216 33.104 12.2336 33.232 12.1216 33.344C12.0096 33.456 11.8776 33.544 11.7256 33.608C11.5816 33.672 11.4256 33.704 11.2576 33.704C11.0896 33.704 10.9296 33.672 10.7776 33.608C10.6336 33.544 10.5056 33.456 10.3936 33.344C10.2816 33.232 10.1936 33.104 10.1296 32.96C10.0656 32.808 10.0336 32.648 10.0336 32.48ZM17.9138 36.428C17.5138 36.22 17.1218 36.116 16.7378 36.116C16.5378 36.116 16.3738 36.156 16.2458 36.236C16.1258 36.316 16.0658 36.424 16.0658 36.56C16.0658 36.632 16.0738 36.692 16.0898 36.74C16.1138 36.78 16.1578 36.82 16.2218 36.86C16.2938 36.9 16.3938 36.936 16.5218 36.968C16.6578 37 16.8338 37.04 17.0498 37.088C17.6498 37.208 18.0978 37.424 18.3938 37.736C18.6898 38.04 18.8378 38.432 18.8378 38.912C18.8378 39.272 18.7658 39.596 18.6218 39.884C18.4778 40.172 18.2778 40.416 18.0218 40.616C17.7658 40.808 17.4578 40.956 17.0978 41.06C16.7378 41.172 16.3418 41.228 15.9098 41.228C15.0778 41.228 14.2578 40.992 13.4498 40.52L14.2418 38.984C14.8498 39.4 15.4258 39.608 15.9698 39.608C16.1698 39.608 16.3338 39.564 16.4618 39.476C16.5898 39.388 16.6538 39.276 16.6538 39.14C16.6538 39.06 16.6418 38.996 16.6178 38.948C16.6018 38.892 16.5618 38.844 16.4978 38.804C16.4338 38.756 16.3378 38.716 16.2098 38.684C16.0898 38.644 15.9298 38.604 15.7298 38.564C15.0578 38.428 14.5858 38.228 14.3138 37.964C14.0498 37.692 13.9178 37.32 13.9178 36.848C13.9178 36.504 13.9818 36.196 14.1098 35.924C14.2378 35.644 14.4218 35.408 14.6618 35.216C14.9018 35.024 15.1898 34.876 15.5258 34.772C15.8698 34.668 16.2498 34.616 16.6658 34.616C17.3458 34.616 18.0058 34.748 18.6458 35.012L17.9138 36.428ZM24.5833 36.836C24.2073 36.58 23.8273 36.452 23.4433 36.452C23.2353 36.452 23.0393 36.488 22.8553 36.56C22.6793 36.632 22.5233 36.736 22.3873 36.872C22.2513 37 22.1433 37.156 22.0633 37.34C21.9913 37.516 21.9553 37.716 21.9553 37.94C21.9553 38.156 21.9913 38.356 22.0633 38.54C22.1433 38.716 22.2473 38.872 22.3753 39.008C22.5113 39.136 22.6713 39.236 22.8553 39.308C23.0393 39.38 23.2353 39.416 23.4433 39.416C23.8513 39.416 24.2313 39.276 24.5833 38.996V40.844C24.0473 41.076 23.5393 41.192 23.0593 41.192C22.6113 41.192 22.1833 41.116 21.7753 40.964C21.3753 40.812 21.0193 40.596 20.7073 40.316C20.4033 40.028 20.1593 39.688 19.9753 39.296C19.7913 38.896 19.6993 38.452 19.6993 37.964C19.6993 37.476 19.7873 37.032 19.9633 36.632C20.1393 36.224 20.3793 35.876 20.6833 35.588C20.9873 35.292 21.3473 35.064 21.7633 34.904C22.1873 34.736 22.6393 34.652 23.1193 34.652C23.6473 34.652 24.1353 34.764 24.5833 34.988V36.836ZM27.8741 37.892C27.8741 38.1 27.9101 38.292 27.9821 38.468C28.0621 38.636 28.1621 38.784 28.2821 38.912C28.4101 39.04 28.5581 39.14 28.7261 39.212C28.9021 39.284 29.0861 39.32 29.2781 39.32C29.4701 39.32 29.6501 39.284 29.8181 39.212C29.9941 39.14 30.1421 39.04 30.2621 38.912C30.3901 38.784 30.4901 38.636 30.5621 38.468C30.6421 38.292 30.6821 38.104 30.6821 37.904C30.6821 37.712 30.6421 37.532 30.5621 37.364C30.4901 37.188 30.3901 37.036 30.2621 36.908C30.1421 36.78 29.9941 36.68 29.8181 36.608C29.6501 36.536 29.4701 36.5 29.2781 36.5C29.0861 36.5 28.9021 36.536 28.7261 36.608C28.5581 36.68 28.4101 36.78 28.2821 36.908C28.1621 37.036 28.0621 37.184 27.9821 37.352C27.9101 37.52 27.8741 37.7 27.8741 37.892ZM25.5821 37.868C25.5821 37.412 25.6741 36.988 25.8581 36.596C26.0421 36.196 26.2981 35.852 26.6261 35.564C26.9541 35.268 27.3421 35.036 27.7901 34.868C28.2461 34.7 28.7421 34.616 29.2781 34.616C29.8061 34.616 30.2941 34.7 30.7421 34.868C31.1981 35.028 31.5901 35.256 31.9181 35.552C32.2541 35.84 32.5141 36.188 32.6981 36.596C32.8821 36.996 32.9741 37.44 32.9741 37.928C32.9741 38.416 32.8781 38.864 32.6861 39.272C32.5021 39.672 32.2461 40.02 31.9181 40.316C31.5901 40.604 31.1941 40.828 30.7301 40.988C30.2741 41.148 29.7781 41.228 29.2421 41.228C28.7141 41.228 28.2261 41.148 27.7781 40.988C27.3301 40.828 26.9421 40.6 26.6141 40.304C26.2941 40.008 26.0421 39.656 25.8581 39.248C25.6741 38.832 25.5821 38.372 25.5821 37.868ZM35.6121 34.844L37.0761 38L38.5641 34.844H40.9881L37.7841 41H36.3321L33.1641 34.844H35.6121ZM45.9432 37.028C45.8712 36.724 45.7232 36.48 45.4992 36.296C45.2752 36.112 45.0032 36.02 44.6832 36.02C44.3472 36.02 44.0712 36.108 43.8552 36.284C43.6472 36.46 43.5152 36.708 43.4592 37.028H45.9432ZM43.3992 38.288C43.3992 39.224 43.8392 39.692 44.7192 39.692C45.1912 39.692 45.5472 39.5 45.7872 39.116H47.8872C47.4632 40.524 46.4032 41.228 44.7072 41.228C44.1872 41.228 43.7112 41.152 43.2792 41C42.8472 40.84 42.4752 40.616 42.1632 40.328C41.8592 40.04 41.6232 39.696 41.4552 39.296C41.2872 38.896 41.2032 38.448 41.2032 37.952C41.2032 37.44 41.2832 36.98 41.4432 36.572C41.6032 36.156 41.8312 35.804 42.1272 35.516C42.4232 35.228 42.7792 35.008 43.1952 34.856C43.6192 34.696 44.0952 34.616 44.6232 34.616C45.1432 34.616 45.6112 34.696 46.0272 34.856C46.4432 35.008 46.7952 35.232 47.0832 35.528C47.3712 35.824 47.5912 36.188 47.7432 36.62C47.8952 37.044 47.9712 37.524 47.9712 38.06V38.288H43.3992ZM49.2128 34.844H51.3848V35.852C51.6168 35.484 51.9008 35.204 52.2368 35.012C52.5728 34.812 52.9648 34.712 53.4128 34.712C53.4688 34.712 53.5288 34.712 53.5928 34.712C53.6648 34.712 53.7448 34.72 53.8328 34.736V36.812C53.5448 36.668 53.2328 36.596 52.8968 36.596C52.3928 36.596 52.0128 36.748 51.7568 37.052C51.5088 37.348 51.3848 37.784 51.3848 38.36V41H49.2128V34.844Z" fill="white"/>
<path d="M18.189 10.3488C17.2893 10.3482 16.4085 10.6061 15.6512 11.0917C14.8939 11.5773 14.292 12.2702 13.9171 13.088L13.9171 13.088L13.9164 13.0896C13.9053 13.1144 13.899 13.1374 13.8951 13.1548C13.8915 13.1711 13.889 13.1867 13.8876 13.1959L13.8875 13.1968C13.8863 13.2043 13.8856 13.2085 13.8851 13.2112M18.189 10.3488L18.1888 10.5488V10.3488C18.1889 10.3488 18.1889 10.3488 18.189 10.3488ZM18.189 10.3488C20.8018 10.3489 22.9011 12.4481 22.9011 15.061C22.9011 17.674 20.8018 19.7733 18.1888 19.7733C15.5759 19.7733 13.4766 17.674 13.4766 15.061C13.4766 14.391 13.6417 13.7777 13.8851 13.2112M13.8851 13.2112C13.8849 13.2125 13.8847 13.2135 13.8845 13.2144C13.8841 13.2165 13.8848 13.2119 13.8882 13.204C13.8872 13.2064 13.8862 13.2088 13.8851 13.2112ZM18.3505 3.80563L18.4758 3.77408L18.4985 3.6469C18.785 2.04486 20.1265 0.821887 21.7986 0.821887C23.3765 0.821887 24.6604 1.91321 25.0453 3.37999L25.0844 3.52923H25.2387H27.382H27.5362L27.5755 3.38009C27.9612 1.9132 29.2452 0.821887 30.8231 0.821887C32.4951 0.821887 33.8367 2.04661 34.1232 3.64606L34.1458 3.77257L34.2703 3.80451C35.9233 4.2286 37.3175 5.29894 37.9554 6.80941V6.88578L38.0123 6.93906L40.0536 12.6466L40.0532 12.6468L40.0582 12.6583C40.3752 13.3953 40.55 14.2096 40.55 15.061C40.55 18.4286 37.8004 21.1781 34.4329 21.1781C31.3995 21.1781 28.8699 18.9481 28.398 16.0442L28.336 15.6626L28.0603 15.9337C27.6032 16.3832 26.9882 16.6659 26.3108 16.6659C25.6334 16.6659 25.0175 16.3831 24.5615 15.9338L24.2859 15.6623L24.2237 16.0441C23.7509 18.9481 21.2221 21.1781 18.1888 21.1781C14.8213 21.1781 12.0718 18.4287 12.0717 15.0613C12.0741 14.1328 12.2887 13.2172 12.6991 12.3843L12.7042 12.374L12.708 12.3631L14.5802 7.11103H14.6056L14.6539 6.98028C15.2768 5.2923 16.6969 4.2221 18.3505 3.80563ZM28.8182 4.23167V4.93412H23.8035V4.23167C23.8035 3.64822 23.6041 3.14397 23.2452 2.78509C22.8863 2.42621 22.3821 2.22678 21.7986 2.22678C21.2152 2.22678 20.7109 2.42621 20.352 2.78509C19.9931 3.14397 19.7937 3.64822 19.7937 4.23167V4.86896L19.1555 4.93518L19.1551 4.93522C17.6936 5.08937 16.521 5.96406 15.971 7.43385L15.9583 7.46775V7.49528L15.2939 9.29553L15.1233 9.75769L15.5677 9.54523C16.3638 9.16469 17.2532 8.9439 18.1888 8.9439C20.7414 8.9439 22.9277 10.5307 23.8425 12.7678L23.9875 13.1223L24.1956 12.8007C24.424 12.4477 24.7373 12.1575 25.1067 11.9567C25.4762 11.7559 25.8901 11.6509 26.3107 11.6512H26.311C26.7315 11.6508 27.1453 11.7558 27.5148 11.9564C27.8843 12.1571 28.1976 12.4471 28.4262 12.7999L28.6344 13.1213L28.7792 12.7668C29.693 10.53 31.879 8.9433 34.4321 8.943C35.3505 8.94908 36.2555 9.16417 37.0785 9.57197L37.5198 9.79066L37.3559 9.3262L36.679 7.4085L36.6784 7.40672C36.6707 7.38559 36.662 7.36774 36.6565 7.35674C36.654 7.35175 36.6522 7.34819 36.6508 7.34542C36.6486 7.34114 36.6474 7.33875 36.6461 7.33594C36.0983 6.06981 34.8856 5.08419 33.4665 4.93521L33.4662 4.93519L32.828 4.86896V4.23167C32.828 3.64822 32.6285 3.14397 32.2697 2.78509C31.9108 2.42621 31.4065 2.22678 30.8231 2.22678C30.2396 2.22678 29.7354 2.42621 29.3765 2.78509C29.0176 3.14397 28.8182 3.64822 28.8182 4.23167ZM39.1451 15.061C39.1451 12.4481 37.0458 10.3488 34.4329 10.3488C31.8199 10.3488 29.7206 12.4481 29.7206 15.061C29.7206 17.674 31.8199 19.7733 34.4329 19.7733C37.0458 19.7733 39.1451 17.674 39.1451 15.061ZM27.4133 14.1586C27.4133 13.5391 26.9303 13.0561 26.3108 13.0561C25.6914 13.0561 25.2084 13.5391 25.2084 14.1586C25.2084 14.778 25.6914 15.261 26.3108 15.261C26.9303 15.261 27.4133 14.778 27.4133 14.1586Z" fill="white" stroke="white" stroke-width="0.4"/>
</svg>
