<svg width="58" height="46" viewBox="0 0 58 46" fill="none" xmlns="http://www.w3.org/2000/svg">
<path d="M0.948 43V33.952H3.3L7.644 39.484V33.952H9.984V43H7.644L3.3 37.468V43H0.948ZM16.3182 39.028C16.2462 38.724 16.0982 38.48 15.8742 38.296C15.6502 38.112 15.3782 38.02 15.0582 38.02C14.7222 38.02 14.4462 38.108 14.2302 38.284C14.0222 38.46 13.8902 38.708 13.8342 39.028H16.3182ZM13.7742 40.288C13.7742 41.224 14.2142 41.692 15.0942 41.692C15.5662 41.692 15.9222 41.5 16.1622 41.116H18.2622C17.8382 42.524 16.7782 43.228 15.0822 43.228C14.5622 43.228 14.0862 43.152 13.6542 43C13.2222 42.84 12.8502 42.616 12.5382 42.328C12.2342 42.04 11.9982 41.696 11.8302 41.296C11.6622 40.896 11.5782 40.448 11.5782 39.952C11.5782 39.44 11.6582 38.98 11.8182 38.572C11.9782 38.156 12.2062 37.804 12.5022 37.516C12.7982 37.228 13.1542 37.008 13.5702 36.856C13.9942 36.696 14.4702 36.616 14.9982 36.616C15.5182 36.616 15.9862 36.696 16.4022 36.856C16.8182 37.008 17.1702 37.232 17.4582 37.528C17.7462 37.824 17.9662 38.188 18.1182 38.62C18.2702 39.044 18.3462 39.524 18.3462 40.06V40.288H13.7742ZM22.0938 38.656V43H19.9218V38.656H19.2018V36.844H19.9218V34.996H22.0938V36.844H23.3298V38.656H22.0938ZM25.8263 36.844L27.3023 40.084L28.8383 36.844H30.2063L31.7423 40.18L33.2903 36.844H35.7023L32.4863 43H31.0343L29.4983 39.628L28.0343 43H26.5583L23.4023 36.844H25.8263ZM38.1866 39.892C38.1866 40.1 38.2226 40.292 38.2946 40.468C38.3746 40.636 38.4746 40.784 38.5946 40.912C38.7226 41.04 38.8706 41.14 39.0386 41.212C39.2146 41.284 39.3986 41.32 39.5906 41.32C39.7826 41.32 39.9626 41.284 40.1306 41.212C40.3066 41.14 40.4546 41.04 40.5746 40.912C40.7026 40.784 40.8026 40.636 40.8746 40.468C40.9546 40.292 40.9946 40.104 40.9946 39.904C40.9946 39.712 40.9546 39.532 40.8746 39.364C40.8026 39.188 40.7026 39.036 40.5746 38.908C40.4546 38.78 40.3066 38.68 40.1306 38.608C39.9626 38.536 39.7826 38.5 39.5906 38.5C39.3986 38.5 39.2146 38.536 39.0386 38.608C38.8706 38.68 38.7226 38.78 38.5946 38.908C38.4746 39.036 38.3746 39.184 38.2946 39.352C38.2226 39.52 38.1866 39.7 38.1866 39.892ZM35.8946 39.868C35.8946 39.412 35.9866 38.988 36.1706 38.596C36.3546 38.196 36.6106 37.852 36.9386 37.564C37.2666 37.268 37.6546 37.036 38.1026 36.868C38.5586 36.7 39.0546 36.616 39.5906 36.616C40.1186 36.616 40.6066 36.7 41.0546 36.868C41.5106 37.028 41.9026 37.256 42.2306 37.552C42.5666 37.84 42.8266 38.188 43.0106 38.596C43.1946 38.996 43.2866 39.44 43.2866 39.928C43.2866 40.416 43.1906 40.864 42.9986 41.272C42.8146 41.672 42.5586 42.02 42.2306 42.316C41.9026 42.604 41.5066 42.828 41.0426 42.988C40.5866 43.148 40.0906 43.228 39.5546 43.228C39.0266 43.228 38.5386 43.148 38.0906 42.988C37.6426 42.828 37.2546 42.6 36.9266 42.304C36.6066 42.008 36.3546 41.656 36.1706 41.248C35.9866 40.832 35.8946 40.372 35.8946 39.868ZM44.537 36.844H46.709V37.852C46.941 37.484 47.225 37.204 47.561 37.012C47.897 36.812 48.289 36.712 48.737 36.712C48.793 36.712 48.853 36.712 48.917 36.712C48.989 36.712 49.069 36.72 49.157 36.736V38.812C48.869 38.668 48.557 38.596 48.221 38.596C47.717 38.596 47.337 38.748 47.081 39.052C46.833 39.348 46.709 39.784 46.709 40.36V43H44.537V36.844ZM52.2988 33.04V39.064L54.5788 36.844H57.5548L54.4708 39.688L57.7348 43H54.6868L52.2988 40.492V43H50.1268V33.04H52.2988Z" fill="white"/>
<path d="M30.7192 22.4923C30.7192 23.3794 30.0001 24.0986 29.113 24.0986C28.2259 24.0986 27.5068 23.3794 27.5068 22.4923C27.5068 21.6052 28.2259 20.8861 29.113 20.8861C30.0001 20.8861 30.7192 21.6052 30.7192 22.4923Z" fill="white" stroke="white" stroke-width="0.4"/>
<path d="M30.7192 4.42996C30.7192 5.31706 30.0001 6.03619 29.113 6.03619C28.2259 6.03619 27.5068 5.31706 27.5068 4.42996C27.5068 3.54286 28.2259 2.82372 29.113 2.82372C30.0001 2.82372 30.7192 3.54286 30.7192 4.42996Z" fill="white" stroke="white" stroke-width="0.4"/>
<path d="M15.3662 13.4611C15.3662 14.3482 14.6471 15.0674 13.76 15.0674C12.8729 15.0674 12.1537 14.3482 12.1537 13.4611C12.1537 12.574 12.8729 11.8549 13.76 11.8549C14.6471 11.8549 15.3662 12.574 15.3662 13.4611Z" fill="white" stroke="white" stroke-width="0.4"/>
<path d="M32.1056 12.758H31.9506H28.0816H27.9256L27.8876 12.6068C27.7669 12.1259 27.5418 11.6775 27.2285 11.2932C26.9152 10.909 26.5212 10.5983 26.0744 10.3833C25.6277 10.1683 25.1391 10.0541 24.6433 10.0489C24.1475 10.0437 23.6567 10.1475 23.2055 10.3531L23.0638 10.4177L22.9664 10.2961L20.0972 6.71069L19.9997 6.58878L20.0943 6.46456C20.5398 5.87946 20.7823 5.16497 20.7849 4.42956C20.7848 3.75478 20.5847 3.09517 20.2098 2.53411C19.8348 1.97293 19.3019 1.53555 18.6783 1.27727C18.0548 1.01898 17.3686 0.951405 16.7067 1.08308C16.0447 1.21475 15.4367 1.53975 14.9594 2.017C14.4822 2.49424 14.1572 3.10228 14.0255 3.76424C13.8938 4.4262 13.9614 5.11233 14.2197 5.73588C14.478 6.35943 14.9154 6.89238 15.4766 7.26735C16.0377 7.64227 16.6973 7.84241 17.3722 7.84246C17.8529 7.84131 18.3278 7.73754 18.7651 7.53807L18.9069 7.4734L19.0043 7.5951L21.8726 11.1805L21.9704 11.3028L21.8752 11.4271C21.4278 12.0108 21.1853 12.7257 21.1853 13.4612C21.1853 14.1966 21.4278 14.9115 21.8752 15.4953L21.9704 15.6196L21.8726 15.7419L19.0043 19.3272L18.9069 19.4489L18.7651 19.3843C18.3278 19.1848 17.853 19.0811 17.3724 19.0799L32.1056 12.758ZM32.1056 12.758L32.1443 12.6079M32.1056 12.758L32.1443 12.6079M32.1443 12.6079C32.3323 11.8773 32.7574 11.2296 33.353 10.7665C33.9485 10.3035 34.6808 10.051 35.4351 10.0487C36.072 10.0477 36.6965 10.2254 37.2376 10.5615C37.7786 10.8976 38.2146 11.3787 38.4959 11.9502C38.7773 12.5216 38.8928 13.1605 38.8294 13.7943C38.7659 14.428 38.526 15.0313 38.1369 15.5356C37.7478 16.0399 37.225 16.425 36.6281 16.6471C36.0311 16.8693 35.3838 16.9196 34.7597 16.7923C34.1356 16.6651 33.5597 16.3654 33.0973 15.9273C32.635 15.4892 32.3047 14.9302 32.1441 14.3138L32.1051 14.1643H31.9506H28.0816H27.9256L27.8876 14.3156C27.7669 14.7966 27.5418 15.2451 27.2284 15.6294C26.915 16.0138 26.521 16.3244 26.0741 16.5395C25.6272 16.7545 25.1386 16.8687 24.6427 16.8738C24.1468 16.879 23.6559 16.775 23.2046 16.5693L23.0629 16.5046L22.9655 16.6263L20.0972 20.2117L19.9997 20.3336M32.1443 12.6079L19.9997 20.3336M19.9997 20.3336L20.0943 20.4578M19.9997 20.3336L20.0943 20.4578M20.0943 20.4578C20.5398 21.0429 20.7823 21.7573 20.7849 22.4928C20.7848 23.1675 20.5847 23.8272 20.2098 24.3882C19.8348 24.9494 19.3019 25.3868 18.6783 25.6451C18.0548 25.9034 17.3686 25.9709 16.7067 25.8393C16.0447 25.7076 15.4367 25.3826 14.9594 24.9053L14.818 25.0468M20.0943 20.4578L14.818 25.0468M14.818 25.0468L14.9594 24.9053C14.4822 24.4281 14.1572 23.8201 14.0255 23.1581C13.8938 22.4961 13.9614 21.81 14.2197 21.1865C14.478 20.5629 14.9154 20.03 15.4766 19.655C16.0376 19.2801 16.6972 19.08 17.372 19.0799L14.818 25.0468ZM15.3662 4.42998L15.3662 4.43018C15.3667 4.96205 15.5782 5.47199 15.9543 5.84808C16.3304 6.22417 16.8404 6.43569 17.3722 6.43622H17.3724C17.7692 6.43622 18.1571 6.31855 18.487 6.09811C18.817 5.87766 19.0741 5.56433 19.2259 5.19774C19.3778 4.83114 19.4175 4.42776 19.3401 4.03858C19.2627 3.64941 19.0716 3.29193 18.791 3.01136C18.5105 2.73078 18.153 2.5397 17.7638 2.46229C17.3747 2.38488 16.9713 2.42461 16.6047 2.57646C16.2381 2.72831 15.9247 2.98545 15.7043 3.31538C15.4839 3.6453 15.3662 4.03319 15.3662 4.42998ZM19.3787 22.4926V22.4924C19.3787 22.0956 19.261 21.7077 19.0406 21.3777C18.8201 21.0478 18.5068 20.7907 18.1402 20.6388C17.7736 20.487 17.3702 20.4473 16.981 20.5247C16.5919 20.6021 16.2344 20.7932 15.9538 21.0737C15.6732 21.3543 15.4821 21.7118 15.4047 22.101C15.3273 22.4901 15.3671 22.8935 15.5189 23.2601C15.6708 23.6267 15.9279 23.94 16.2578 24.1605C16.5877 24.3809 16.9756 24.4986 17.3724 24.4986H17.3726C17.9045 24.4981 18.4144 24.2865 18.7905 23.9105C19.1666 23.5344 19.3781 23.0244 19.3787 22.4926ZM24.5974 15.4674H24.5976C25.1294 15.4669 25.6394 15.2554 26.0155 14.8793C26.3916 14.5032 26.6031 13.9932 26.6036 13.4614V13.4612C26.6036 13.0644 26.4859 12.6765 26.2655 12.3466C26.0451 12.0166 25.7317 11.7595 25.3651 11.6076C24.9985 11.4558 24.5951 11.4161 24.206 11.4935C23.8168 11.5709 23.4593 11.762 23.1788 12.0425C22.8982 12.3231 22.7071 12.6806 22.6297 13.0698C22.5523 13.4589 22.592 13.8623 22.7439 14.2289C22.8957 14.5955 23.1528 14.9088 23.4828 15.1293C23.8127 15.3497 24.2006 15.4674 24.5974 15.4674ZM35.4348 15.4674H35.435C35.9669 15.4669 36.4768 15.2554 36.8529 14.8793C37.229 14.5032 37.4405 13.9932 37.441 13.4614V13.4612C37.441 13.0644 37.3234 12.6765 37.1029 12.3466C36.8825 12.0166 36.5691 11.7595 36.2026 11.6076C35.836 11.4558 35.4326 11.4161 35.0434 11.4935C34.6542 11.5709 34.2968 11.762 34.0162 12.0425C33.7356 12.3231 33.5445 12.6806 33.4671 13.0698C33.3897 13.4589 33.4294 13.8623 33.5813 14.2289C33.7331 14.5955 33.9903 14.9088 34.3202 15.1293C34.6501 15.3497 35.038 15.4674 35.4348 15.4674Z" fill="white" stroke="white" stroke-width="0.4"/>
</svg>
