<svg width="69" height="46" viewBox="0 0 69 46" fill="none" xmlns="http://www.w3.org/2000/svg">
<path d="M1.08398 43V33.3379L7.68164 40.2402V33.9531H9.04688V43.5508L2.44922 36.666V43H1.08398ZM10.7812 40.1055C10.7812 39.2812 11.0762 38.5801 11.666 38.002C12.2559 37.4238 12.9746 37.1348 13.8223 37.1348C14.6738 37.1348 15.3965 37.4258 15.9902 38.0078C16.5762 38.5898 16.8691 39.3047 16.8691 40.1523C16.8691 41.0078 16.5742 41.7246 15.9844 42.3027C15.3906 42.877 14.6621 43.1641 13.7988 43.1641C12.9434 43.1641 12.2266 42.8711 11.6484 42.2852C11.0703 41.707 10.7812 40.9805 10.7812 40.1055ZM12.1289 40.1289C12.1289 40.6992 12.2812 41.1504 12.5859 41.4824C12.8984 41.8184 13.3105 41.9863 13.8223 41.9863C14.3379 41.9863 14.75 41.8203 15.0586 41.4883C15.3672 41.1562 15.5215 40.7129 15.5215 40.1582C15.5215 39.6035 15.3672 39.1602 15.0586 38.8281C14.7461 38.4922 14.334 38.3242 13.8223 38.3242C13.3184 38.3242 12.9102 38.4922 12.5977 38.8281C12.2852 39.1641 12.1289 39.5977 12.1289 40.1289ZM19.6992 38.5234V43H18.3809V38.5234H17.8184V37.293H18.3809V35.2012H19.6992V37.293H20.7246V38.5234H19.6992ZM22.9395 37.293V43H21.6211V37.293H22.9395ZM21.4219 34.9199C21.4219 34.6895 21.5059 34.4902 21.6738 34.3223C21.8418 34.1543 22.043 34.0703 22.2773 34.0703C22.5156 34.0703 22.7188 34.1543 22.8867 34.3223C23.0547 34.4863 23.1387 34.6875 23.1387 34.9258C23.1387 35.1641 23.0547 35.3672 22.8867 35.5352C22.7227 35.7031 22.5215 35.7871 22.2832 35.7871C22.0449 35.7871 21.8418 35.7031 21.6738 35.5352C21.5059 35.3672 21.4219 35.1621 21.4219 34.9199ZM29.3086 35.7871H27.9902V35.2539C27.9902 34.9648 27.8965 34.7109 27.709 34.4922C27.5098 34.2695 27.2656 34.1582 26.9766 34.1582C26.6914 34.1582 26.4512 34.2676 26.2559 34.4863C26.0645 34.7012 25.9688 34.957 25.9688 35.2539V37.293H27.4805V38.5234H25.9688V43H24.6504V38.5234H24.1816V37.293H24.6504V35.2539C24.6504 34.6133 24.877 34.0664 25.3301 33.6133C25.7871 33.1562 26.3379 32.9277 26.9824 32.9277C27.623 32.9277 28.1699 33.1562 28.623 33.6133C29.0801 34.0664 29.3086 34.6133 29.3086 35.2539V35.7871ZM29.3086 43H27.9902V37.293H29.3086V43ZM35.4258 37.5391V39.291C35.125 38.9238 34.8555 38.6719 34.6172 38.5352C34.3828 38.3945 34.1074 38.3242 33.791 38.3242C33.2949 38.3242 32.8828 38.498 32.5547 38.8457C32.2266 39.1934 32.0625 39.6289 32.0625 40.1523C32.0625 40.6875 32.2207 41.127 32.5371 41.4707C32.8574 41.8145 33.2656 41.9863 33.7617 41.9863C34.0781 41.9863 34.3574 41.918 34.5996 41.7812C34.834 41.6484 35.1094 41.3906 35.4258 41.0078V42.748C34.8906 43.0254 34.3555 43.1641 33.8203 43.1641C32.9375 43.1641 32.1992 42.8789 31.6055 42.3086C31.0117 41.7344 30.7148 41.0215 30.7148 40.1699C30.7148 39.3184 31.0156 38.5996 31.6172 38.0137C32.2188 37.4277 32.957 37.1348 33.832 37.1348C34.3945 37.1348 34.9258 37.2695 35.4258 37.5391ZM40.9102 37.293H42.2344V43H40.9102V42.4023C40.3672 42.9102 39.7832 43.1641 39.1582 43.1641C38.3691 43.1641 37.7168 42.8789 37.2012 42.3086C36.6895 41.7266 36.4336 41 36.4336 40.1289C36.4336 39.2734 36.6895 38.5605 37.2012 37.9902C37.7129 37.4199 38.3535 37.1348 39.123 37.1348C39.7871 37.1348 40.3828 37.4082 40.9102 37.9551V37.293ZM37.7812 40.1289C37.7812 40.6758 37.9277 41.1211 38.2207 41.4648C38.5215 41.8125 38.9004 41.9863 39.3574 41.9863C39.8457 41.9863 40.2402 41.8184 40.541 41.4824C40.8418 41.1348 40.9922 40.6934 40.9922 40.1582C40.9922 39.623 40.8418 39.1816 40.541 38.834C40.2402 38.4941 39.8496 38.3242 39.3691 38.3242C38.916 38.3242 38.5371 38.4961 38.2324 38.8398C37.9316 39.1875 37.7812 39.6172 37.7812 40.1289ZM45.2578 38.5234V43H43.9395V38.5234H43.377V37.293H43.9395V35.2012H45.2578V37.293H46.2832V38.5234H45.2578ZM48.498 37.293V43H47.1797V37.293H48.498ZM46.9805 34.9199C46.9805 34.6895 47.0645 34.4902 47.2324 34.3223C47.4004 34.1543 47.6016 34.0703 47.8359 34.0703C48.0742 34.0703 48.2773 34.1543 48.4453 34.3223C48.6133 34.4863 48.6973 34.6875 48.6973 34.9258C48.6973 35.1641 48.6133 35.3672 48.4453 35.5352C48.2812 35.7031 48.0801 35.7871 47.8418 35.7871C47.6035 35.7871 47.4004 35.7031 47.2324 35.5352C47.0645 35.3672 46.9805 35.1621 46.9805 34.9199ZM49.8984 40.1055C49.8984 39.2812 50.1934 38.5801 50.7832 38.002C51.373 37.4238 52.0918 37.1348 52.9395 37.1348C53.791 37.1348 54.5137 37.4258 55.1074 38.0078C55.6934 38.5898 55.9863 39.3047 55.9863 40.1523C55.9863 41.0078 55.6914 41.7246 55.1016 42.3027C54.5078 42.877 53.7793 43.1641 52.916 43.1641C52.0605 43.1641 51.3438 42.8711 50.7656 42.2852C50.1875 41.707 49.8984 40.9805 49.8984 40.1055ZM51.2461 40.1289C51.2461 40.6992 51.3984 41.1504 51.7031 41.4824C52.0156 41.8184 52.4277 41.9863 52.9395 41.9863C53.4551 41.9863 53.8672 41.8203 54.1758 41.4883C54.4844 41.1562 54.6387 40.7129 54.6387 40.1582C54.6387 39.6035 54.4844 39.1602 54.1758 38.8281C53.8633 38.4922 53.4512 38.3242 52.9395 38.3242C52.4355 38.3242 52.0273 38.4922 51.7148 38.8281C51.4023 39.1641 51.2461 39.5977 51.2461 40.1289ZM57.3867 37.293H58.7109V37.8203C59.1719 37.3633 59.6914 37.1348 60.2695 37.1348C60.9336 37.1348 61.4512 37.3438 61.8223 37.7617C62.1426 38.1172 62.3027 38.6973 62.3027 39.502V43H60.9785V39.8125C60.9785 39.25 60.9004 38.8613 60.7441 38.6465C60.5918 38.4277 60.3145 38.3184 59.9121 38.3184C59.4746 38.3184 59.1641 38.4629 58.9805 38.752C58.8008 39.0371 58.7109 39.5352 58.7109 40.2461V43H57.3867V37.293ZM67.2891 38.2656L66.1992 38.8457C66.0273 38.4941 65.8145 38.3184 65.5605 38.3184C65.4395 38.3184 65.3359 38.3594 65.25 38.4414C65.1641 38.5195 65.1211 38.6211 65.1211 38.7461C65.1211 38.9648 65.375 39.1816 65.8828 39.3965C66.582 39.6973 67.0527 39.9746 67.2949 40.2285C67.5371 40.4824 67.6582 40.8242 67.6582 41.2539C67.6582 41.8047 67.4551 42.2656 67.0488 42.6367C66.6543 42.9883 66.1777 43.1641 65.6191 43.1641C64.6621 43.1641 63.9844 42.6973 63.5859 41.7637L64.7109 41.2422C64.8672 41.5156 64.9863 41.6895 65.0684 41.7637C65.2285 41.9121 65.4199 41.9863 65.6426 41.9863C66.0879 41.9863 66.3105 41.7832 66.3105 41.377C66.3105 41.1426 66.1387 40.9238 65.7949 40.7207C65.6621 40.6543 65.5293 40.5898 65.3965 40.5273C65.2637 40.4648 65.1289 40.4004 64.9922 40.334C64.6094 40.1465 64.3398 39.959 64.1836 39.7715C63.9844 39.5332 63.8848 39.2266 63.8848 38.8516C63.8848 38.3555 64.0547 37.9453 64.3945 37.6211C64.7422 37.2969 65.1641 37.1348 65.6602 37.1348C66.3906 37.1348 66.9336 37.5117 67.2891 38.2656Z" fill="white"/>
<path d="M28.4991 20.9626H23.2307H23.2306C22.961 20.9621 22.6963 20.8905 22.4631 20.755C22.23 20.6196 22.0367 20.425 21.9027 20.191C21.7687 19.957 21.6988 19.6919 21.7 19.4222C21.7012 19.1526 21.7735 18.8881 21.9095 18.6554C22.6689 17.3489 23.579 14.8756 23.579 10.5273V9.53832V9.53826H23.629C23.6257 7.0496 24.6111 4.66157 26.3685 2.89946C28.1259 1.13735 30.5113 0.145498 32.9999 0.14209L28.4991 20.9626ZM28.4991 20.9626V21.4071C28.4991 22.6008 28.9733 23.7456 29.8174 24.5897C30.6614 25.4337 31.8062 25.9079 32.9999 25.9079C34.1936 25.9079 35.3384 25.4337 36.1825 24.5897C37.0265 23.7456 37.5007 22.6008 37.5007 21.4071V20.9626H42.7691H42.7692C43.0388 20.9621 43.3035 20.8906 43.5367 20.7552C43.7699 20.6197 43.9632 20.4252 44.0972 20.1913C44.2312 19.9573 44.3012 19.6921 44.3 19.4225C44.2989 19.1529 44.2266 18.8883 44.0906 18.6555L44.0775 18.6331L28.4991 20.9626ZM43.1508 19.6524L43.1503 19.6532C43.1124 19.7207 43.0571 19.7767 42.9901 19.8155C42.9231 19.8542 42.8469 19.8743 42.7696 19.8735H42.7691L23.2307 19.8735L23.2302 19.8735C23.1529 19.8743 23.0767 19.8542 23.0097 19.8155C22.9427 19.7767 22.8874 19.7206 22.8495 19.6531L22.849 19.6522C22.809 19.5841 22.788 19.5065 22.7883 19.4275C22.7885 19.3485 22.8101 19.2711 22.8506 19.2033L22.8509 19.2027C23.6818 17.7732 24.6679 15.1103 24.6679 10.5273V9.53826V9.53818C24.6646 7.32506 25.5407 5.20129 27.1032 3.63405C28.6658 2.06681 30.787 1.18448 33.0001 1.18116L33.0638 1.18141C33.0639 1.18141 33.0639 1.18141 33.0639 1.18141C37.6225 1.21536 41.3329 5.01365 41.3329 9.65002V10.5273C41.3329 15.1103 42.3184 17.7733 43.1488 19.2029L43.1491 19.2034C43.1896 19.2712 43.2112 19.3487 43.2115 19.4277C43.2118 19.5067 43.1908 19.5843 43.1508 19.6524ZM36.4117 21.4071C36.4117 22.312 36.0522 23.1797 35.4124 23.8196C34.7726 24.4594 33.9048 24.8188 32.9999 24.8188C32.0951 24.8188 31.2273 24.4594 30.5874 23.8196C29.9476 23.1797 29.5882 22.312 29.5882 21.4071V20.9626H36.4117V21.4071Z" fill="white" stroke="white" stroke-width="0.1"/>
</svg>
